# xmcd
#
# Track frame offsets:
#	150
#	11103
#	25823
#	38165
#	49343
#	64413
#	74968
#	84453
#	92878
#	103988
#	116685
#	130793
#
# Disc length: 1872 seconds
#
# Revision: 1
# Processed by: cddbd v1.4PL0 Copyright (c) Steve Scherf et al.
# Submitted via: audiograbber 1.81.01
#
DISCID=b2074e0c
DTITLE=Various Artist - Country Juke-Box Hits 3
DYEAR=1990
DGENRE=Country
TTITLE0=Kris Kristofferson - Help Me Make It Through The Night
TTITLE1=Jeannie C. Riley - Harper Valley P.T.A.
TTITLE2=Johnny Cash - I Walk The Line
TTITLE3=Dolly Parton - Dumb Blonde
TTITLE4=Kenny Rogers - For The Good Times
TTITLE5=Patsy Cline - I Can See An Angel
TTITLE6=Charlie Rich - Lonely Weekends
TTITLE7=Jerry Lee Lewis - Save The Last Dance For Me
TTITLE8=Roy Orbison - Love Hurts
TTITLE9=Willie Nelson - Any Old Arms Won't Do
TTITLE10=David Allan Coe - Ride Me Down Easy
TTITLE11=Dave Dudley - Truck Drivin' Son-Of-A-Gun
EXTD=
EXTT0=
EXTT1=
EXTT2=
EXTT3=
EXTT4=
EXTT5=
EXTT6=
EXTT7=
EXTT8=
EXTT9=
EXTT10=
EXTT11=
PLAYORDER=
